<svg width="21" height="20" viewBox="0 0 21 20" fill="none" xmlns="http://www.w3.org/2000/svg">
                <g clip-path="url(#clip0_5095_427)">
                    <rect width="20" height="20" transform="translate(0.5)" fill="white"></rect>
                    <path d="M3.91992 4.41998C3.91992 3.8677 4.36764 3.41998 4.91992 3.41998H16.0999C16.6522 3.41998 17.0999 3.8677 17.0999 4.41998V15.6C17.0999 16.1523 16.6522 16.6 16.0999 16.6H4.91992C4.36764 16.6 3.91992 16.1523 3.91992 15.6V4.41998Z" fill="white"></path>
                    <path d="M3.91992 13.6V15.6C3.91992 16.1523 4.36764 16.6 4.91992 16.6H6.89992V18.6H4.91992C3.26307 18.6 1.91992 17.2568 1.91992 15.6V13.6H3.91992Z" fill="#FF385C"></path>
                    <path d="M19.0999 15.6C19.0999 17.2568 17.7568 18.6 16.0999 18.6H14.1199V16.6H16.0999C16.6479 16.6 17.0929 16.1592 17.0998 15.6129L17.0999 15.6V13.6H19.0999V15.6Z" fill="#FF385C"></path>
                    <path d="M16.0999 1.41998C17.7568 1.41998 19.0999 2.76313 19.0999 4.41998V6.37998H17.0999V4.41998C17.0999 3.87201 16.6592 3.42698 16.1129 3.42006L16.0999 3.41998H14.1199V1.41998H16.0999Z" fill="#FF385C"></path>
                    <path d="M6.89992 3.41998H4.91992L4.90699 3.42006C4.36067 3.42698 3.91992 3.87201 3.91992 4.41998V6.37998H1.91992V4.41998C1.91992 2.76313 3.26307 1.41998 4.91992 1.41998H6.89992V3.41998Z" fill="#FF385C"></path>
                    <path d="M11.7626 5.52002C12.3146 5.52002 12.822 5.82321 13.0835 6.30934L13.4373 6.96691C13.5245 7.12895 13.6937 7.23002 13.8777 7.23002H14.3801C15.2085 7.23002 15.8801 7.90159 15.8801 8.73002V12.97C15.8801 13.7984 15.2085 14.47 14.3801 14.47H6.62012C5.79169 14.47 5.12012 13.7984 5.12012 12.97V8.73002C5.12012 7.90159 5.79169 7.23002 6.62012 7.23002H7.12949C7.31431 7.23002 7.48405 7.12806 7.57088 6.9649L7.91656 6.31535C8.17704 5.82589 8.68628 5.52002 9.24074 5.52002H11.7626ZM10.5001 8.51002C9.35136 8.51002 8.42012 9.44127 8.42012 10.59C8.42012 11.7388 9.35136 12.67 10.5001 12.67C11.6489 12.67 12.5801 11.7388 12.5801 10.59C12.5801 9.44127 11.6489 8.51002 10.5001 8.51002Z" fill="#FF385C"></path>
                </g>
                <defs>
                    <clipPath id="clip0_5095_427">
                        <rect width="20" height="20" fill="white" transform="translate(0.5)"></rect>
                    </clipPath>
                </defs>
            </svg>